HIERARCHY
ROOT Hips
{
	OFFSET 0.000000 88.474243 0.000000
	CHANNELS 6 Xposition Yposition Zposition Zrotation Yrotation Xrotation 
	JOINT Hips_Spine
	{
		OFFSET 0.000000 0.000000 0.000000
		CHANNELS 3 Zrotation Yrotation Xrotation
		JOINT Spine
		{
			OFFSET 0.005100 8.711998 -0.691000
			CHANNELS 3 Zrotation Yrotation Xrotation
			JOINT Spine1
			{
				OFFSET -0.009200 8.660301 -1.275000
				CHANNELS 3 Zrotation Yrotation Xrotation
				JOINT Spine2
				{
					OFFSET 0.006300 9.852501 -1.857000
					CHANNELS 3 Zrotation Yrotation Xrotation
					JOINT Spine2_Neck
					{
						OFFSET 0.000000 0.000000 0.000000
						CHANNELS 3 Zrotation Yrotation Xrotation
						JOINT Neck
						{
							OFFSET 0.016300 11.420799 -0.263300
							CHANNELS 3 Zrotation Yrotation Xrotation
							End Site #name: Head
							{
								OFFSET -0.019200 9.262405 2.362500
							}
						}
					}
					JOINT Spine2_LeftShoulder
					{
						OFFSET 0.000000 0.000000 0.000000
						CHANNELS 3 Zrotation Yrotation Xrotation
						JOINT LeftShoulder
						{
							OFFSET 5.616900 6.732201 -0.345700
							CHANNELS 3 Zrotation Yrotation Xrotation
							JOINT LeftArm
							{
								OFFSET 10.664888 -0.183372 -2.440700
								CHANNELS 3 Zrotation Yrotation Xrotation
								JOINT LeftForeArm
								{
									OFFSET 27.459126 0.000000 0.000000
									CHANNELS 3 Zrotation Yrotation Xrotation
									End Site #name: LeftHand
									{
										OFFSET 21.306858 0.000000 0.000000
									}
								}
							}
						}
					}
					JOINT Spine2_RightShoulder
					{
						OFFSET 0.000000 0.000000 0.000000
						CHANNELS 3 Zrotation Yrotation Xrotation
						JOINT RightShoulder
						{
							OFFSET -5.580300 6.737503 -0.344400
							CHANNELS 3 Zrotation Yrotation Xrotation
							JOINT RightArm
							{
								OFFSET -10.679335 -0.188484 -2.383900
								CHANNELS 3 Zrotation Yrotation Xrotation
								JOINT RightForeArm
								{
									OFFSET -27.503529 0.000000 0.000000
									CHANNELS 3 Zrotation Yrotation Xrotation
									End Site #name: RightHand
									{
										OFFSET -21.306808 0.000000 0.000000
									}
								}
							}
						}
					}
				}
			}
		}
	}
	JOINT Hips_LeftUpLeg
	{
		OFFSET 0.000000 0.000000 0.000000
		CHANNELS 3 Zrotation Yrotation Xrotation
		JOINT LeftUpLeg
		{
			OFFSET 6.857700 -6.739601 0.312100
			CHANNELS 3 Zrotation Yrotation Xrotation
			JOINT LeftLeg
			{
				OFFSET -0.367590 -34.731552 -4.572400
				CHANNELS 3 Zrotation Yrotation Xrotation
				End Site #name: LeftFoot
				{
					OFFSET 0.367590 -34.656704 -6.067400
				}
			}
		}
	}
	JOINT Hips_RightUpLeg
	{
		OFFSET 0.000000 0.000000 0.000000
		CHANNELS 3 Zrotation Yrotation Xrotation
		JOINT RightUpLeg
		{
			OFFSET -6.876100 -6.733299 0.301000
			CHANNELS 3 Zrotation Yrotation Xrotation
			JOINT RightLeg
			{
				OFFSET 0.347353 -34.795158 -4.515900
				CHANNELS 3 Zrotation Yrotation Xrotation
				End Site #name: RightFoot
				{
					OFFSET -0.347353 -34.589367 -6.070300
				}
			}
		}
	}
}
MOTION
Frames: 12
Frame Time: 0.041667
0.035710 -0.019119 -0.073862 -177.878514 58.636318 -173.958303 -0.000000 -0.000000 0.000000 -3.956777 3.482886 -0.958911 1.013809 -0.360656 0.499989 0.000000 0.000000 0.000000 0.439907 -0.973834 -2.816240 -1.721285 -8.132307 -1.020735 0.597275 -0.110186 -1.153110 -3.444300 -7.186360 1.515485 -77.931809 -8.945465 10.622003 0.763948 -17.270056 3.549744 0.314957 -0.545852 -1.590159 18.616808 13.282800 4.529279 51.392166 12.122776 -10.669518 -7.165319 71.229504 -0.837695 0.000000 -0.000000 0.000000 -8.238241 18.435442 -15.266765 -7.022839 -36.714457 0.570990 -0.000000 -0.000000 -0.000000 -9.179650 -30.358109 -6.931254 -15.190312 -10.670279 14.470958 
-0.224979 -0.195430 -0.130625 179.105324 64.101727 -175.401458 -0.000000 -0.000000 0.000000 -5.814676 2.109601 1.514527 1.305403 -0.639260 -0.514897 0.000000 0.000000 0.000000 1.221632 -0.681569 -2.784380 -0.494373 -15.772896 -0.257167 0.747233 -0.328328 -1.856190 -2.398493 -8.656886 1.750646 -83.654546 -15.652200 6.685938 -1.113140 -14.240386 1.625523 1.086786 -0.889924 -0.509347 24.201447 16.322375 4.915044 50.419938 10.796955 -11.467473 -4.105802 55.196209 1.429687 -0.000000 -0.000000 -0.000000 -6.508423 19.381284 -13.208268 -3.617345 -34.214442 -5.141945 -0.000000 -0.000000 -0.000000 -9.573783 -35.918418 -5.648228 -13.304169 -7.174323 13.635586 
-0.244353 -0.266628 -0.155129 177.651598 53.225681 -176.741407 -0.000000 -0.000000 0.000000 -6.695422 -0.694142 2.072826 1.599141 -0.695818 -1.125342 0.000000 0.000000 0.000000 1.681290 -0.866216 -2.977279 -0.996807 -25.127357 -0.242666 0.818969 -0.319690 -2.356909 -1.201432 -7.710464 1.104108 -85.211996 -16.787253 1.414676 -0.830576 -8.523867 1.860653 1.488281 -1.041365 -1.969009 25.720592 18.444040 5.841179 51.238966 10.349792 -6.452370 -2.715981 50.848140 4.392590 -0.000000 0.000000 -0.000000 -5.178915 20.437096 -11.891360 -2.701143 -32.954298 -7.067789 -0.000000 -0.000000 -0.000000 -9.961171 -40.669862 -3.552548 -13.361645 -7.336816 14.445712 
-0.107808 -0.309521 -0.176924 177.965711 40.559155 -177.250439 -0.000000 -0.000000 0.000000 -6.549104 -1.626416 2.795499 1.293532 -1.025989 -1.512235 0.000000 0.000000 0.000000 1.625866 -1.149784 -2.875772 -1.636838 -29.999878 -0.187755 0.697184 -0.514769 -2.733710 -0.844785 -6.804888 0.752964 -86.131655 -18.038007 -0.469772 -0.572596 -5.646965 1.937061 1.278548 -1.464030 -2.125401 24.445854 18.048164 5.848902 51.594525 11.571194 -3.905072 -0.520187 50.794686 6.156742 -0.000000 0.000000 -0.000000 -4.481189 21.312397 -10.791849 -2.196787 -33.727120 -7.691536 -0.000000 -0.000000 -0.000000 -10.808245 -47.418765 -2.287108 -13.809410 -6.717680 15.424899 
0.047214 -0.327879 -0.242825 177.626327 28.863766 -177.849797 -0.000000 -0.000000 0.000000 -5.974912 -1.841198 2.999784 0.818838 -1.295550 -1.711102 0.000000 0.000000 0.000000 1.396886 -1.398490 -2.463925 -1.617577 -31.862778 -0.331938 0.402904 -0.784340 -2.792203 -0.915114 -5.931881 0.570087 -86.687207 -18.994316 -0.222191 0.278926 -4.476654 2.753691 0.865133 -1.746011 -1.857073 22.082362 16.757909 5.437695 52.148128 12.435176 -1.245136 0.612920 51.394444 6.276429 -0.000000 0.000000 -0.000000 -4.139484 22.016942 -10.172776 -1.912488 -34.173236 -8.025443 -0.000000 -0.000000 -0.000000 -11.298877 -52.672662 -1.704330 -14.464348 -5.871026 16.432522 
0.211630 -0.321400 -0.344040 176.868341 18.882281 -178.323214 -0.000000 -0.000000 0.000000 -5.289709 -1.678790 3.102083 0.376579 -1.505582 -1.543046 0.000000 0.000000 0.000000 1.119392 -1.525010 -1.769826 -1.115640 -31.409574 -1.138763 0.107706 -0.964071 -2.433856 -1.118176 -5.085460 0.472362 -87.032331 -19.157382 0.763394 1.309846 -4.139830 3.710788 0.483442 -1.877151 -1.230645 20.026721 15.399955 5.059722 52.873682 12.203788 1.198406 -0.021241 51.809895 5.138676 -0.000000 0.000000 -0.000000 -4.194952 22.177699 -10.051210 -1.803748 -34.463632 -8.278734 -0.000000 -0.000000 -0.000000 -11.299997 -56.207922 -1.753476 -15.047536 -5.492152 17.099456 
0.381002 -0.295316 -0.466406 176.009406 11.703028 -178.573906 -0.000000 -0.000000 0.000000 -4.887876 -0.911316 3.206975 0.061013 -1.561411 -0.972997 0.000000 0.000000 0.000000 0.880939 -1.559429 -0.953740 -0.573767 -29.940060 -2.125438 -0.064539 -1.053747 -1.930150 -1.371181 -4.235397 0.412557 -86.870849 -19.270833 1.702828 2.205922 -4.754287 4.556709 0.210821 -1.944504 -0.712273 18.513323 14.399506 4.901873 53.673832 10.410012 3.910201 -0.893266 50.792496 4.228232 -0.000000 0.000000 -0.000000 -4.400487 21.839592 -10.158305 -1.747518 -34.734500 -8.630119 -0.000000 -0.000000 -0.000000 -11.099505 -58.210804 -2.146862 -15.554833 -5.728998 17.420091 
0.549291 -0.260800 -0.598817 175.306426 6.444739 -178.661565 -0.000000 -0.000000 0.000000 -4.776042 0.328315 3.235421 -0.099637 -1.516994 -0.238351 0.000000 0.000000 0.000000 0.679599 -1.532441 -0.112556 -0.142006 -28.418590 -2.918852 -0.180471 -1.068046 -1.419547 -1.497632 -3.652947 0.395228 -86.356910 -19.565375 2.472720 2.827581 -6.001680 4.953705 0.040503 -1.955239 -0.468909 17.482263 13.849751 4.530588 54.526875 8.458626 6.613508 -0.835912 48.427226 4.321939 -0.000000 0.000000 -0.000000 -4.579265 21.332027 -10.257918 -1.715240 -34.945017 -8.992565 -0.000000 -0.000000 -0.000000 -10.882834 -58.943853 -2.607204 -15.973688 -6.312319 17.376637 
0.714664 -0.221182 -0.732030 174.778517 1.669255 -178.694079 -0.000000 -0.000000 0.000000 -4.895611 1.302571 3.368567 -0.166500 -1.439227 0.470714 0.000000 0.000000 0.000000 0.525074 -1.478507 0.566706 -0.074301 -27.331479 -3.284335 -0.256674 -1.048483 -1.033067 -1.456322 -3.375241 0.429464 -85.690779 -19.887345 3.258988 3.209414 -7.779431 4.817814 -0.080263 -1.963197 -0.235784 16.773118 13.648750 4.059365 54.901519 7.562892 7.226104 0.133293 44.923172 5.081934 -0.000000 0.000000 -0.000000 -4.613011 20.833048 -9.979422 -1.684527 -35.169778 -9.427182 -0.000000 -0.000000 -0.000000 -10.810798 -58.986841 -2.899986 -16.152739 -7.003782 17.028083 
0.872203 -0.173523 -0.870099 174.460502 -2.610297 -178.712666 -0.000000 -0.000000 0.000000 -5.240745 1.848328 3.645198 -0.196084 -1.378368 0.997551 0.000000 0.000000 0.000000 0.425080 -1.440404 1.021396 0.176941 -26.921135 -3.408994 -0.311318 -1.042187 -0.769777 -1.244603 -3.398013 0.501453 -85.131815 -20.402012 3.923078 3.535573 -9.798462 4.265968 -0.180723 -1.969485 -0.081490 16.189340 13.430177 3.640360 55.144812 7.111333 7.015674 1.515165 41.463012 6.028703 0.000000 0.000000 -0.000000 -4.533165 20.418783 -9.408989 -1.638165 -35.445389 -9.820807 -0.000000 -0.000000 -0.000000 -10.850698 -58.626281 -3.007079 -16.024781 -7.724113 16.458538 
1.019832 -0.119375 -1.017213 174.309616 -6.333303 -178.723668 -0.000000 -0.000000 0.000000 -5.699019 1.949757 4.054836 -0.227652 -1.385155 1.257067 0.000000 0.000000 0.000000 0.349765 -1.429867 1.262686 0.560884 -27.131981 -3.492435 -0.350897 -1.061451 -0.614431 -0.967253 -3.603055 0.578658 -84.782369 -21.014163 4.511007 3.775569 -11.829557 3.460104 -0.272718 -2.003424 -0.005099 15.798061 13.136491 3.376061 55.357272 6.700267 7.074927 2.841183 39.512015 6.894572 0.000000 0.000000 -0.000000 -4.401718 20.101315 -8.724544 -1.606213 -35.828688 -10.137028 -0.000000 -0.000000 -0.000000 -11.050324 -58.131643 -2.843101 -15.526382 -8.363553 15.637848 
1.161433 -0.062986 -1.170909 174.225580 -9.554652 -178.684835 -0.000000 -0.000000 0.000000 -6.188216 1.758462 4.338479 -0.272145 -1.459880 1.359248 0.000000 0.000000 0.000000 0.290481 -1.447720 1.367773 1.004788 -27.618428 -3.555649 -0.380554 -1.102731 -0.537193 -0.653218 -3.901575 0.658712 -84.570579 -21.526322 5.124467 3.949442 -13.723267 2.536905 -0.349792 -2.062232 0.028166 15.571394 12.885274 3.213964 55.503395 6.502968 6.794628 4.109932 38.529987 7.693720 0.000000 0.000000 -0.000000 -4.297641 19.803183 -8.004858 -1.563546 -36.317767 -10.508846 -0.000000 -0.000000 -0.000000 -11.316986 -57.629987 -2.617634 -14.883942 -9.043866 14.942799 
